# Blender v2.79 (sub 0) OBJ File: 'Parallelogram.blend'
# www.blender.org
o Cube
v 1.989430 0.000000 0.005215
v -0.010458 0.000000 -0.015868
v 0.010625 0.000000 -2.015757
v 2.010514 0.000000 -1.994673
v 2.989375 1.000000 0.015758
v 0.989486 1.000000 -0.005327
v 1.010570 1.000000 -2.005216
v 3.010458 1.000000 -1.984132
vt 0.000000 0.000000
vt 1.000000 1.000000
vt 0.000000 1.000000
vt 1.000000 0.000000
vt 0.000000 1.000000
vt 0.000000 0.000000
vt 1.000000 1.000000
vt 0.000000 1.000000
vt 1.000000 0.000000
vt 0.000000 1.000000
vt 0.000000 0.000000
vt 1.000000 0.000000
vt 0.000000 0.000000
vt 1.000000 0.000000
vt 0.000000 1.000000
vt 1.000000 0.000000
vt 1.000000 1.000000
vt 1.000000 0.000000
vt 1.000000 1.000000
vt 1.000000 1.000000
vn 0.0000 -1.0000 0.0000
vn 0.0000 1.0000 0.0000
vn -0.0105 0.0000 0.9999
vn -0.7071 0.7071 -0.0075
vn 0.0105 -0.0000 -0.9999
vn 0.7071 -0.7071 0.0075
s off
f 1/1/1 3/2/1 4/3/1
f 8/4/2 6/5/2 5/6/2
f 1/1/3 6/7/3 2/8/3
f 6/9/4 3/10/4 2/11/4
f 7/12/5 4/3/5 3/13/5
f 1/14/6 8/15/6 5/6/6
f 1/1/1 2/16/1 3/2/1
f 8/4/2 7/17/2 6/5/2
f 1/1/3 5/18/3 6/7/3
f 6/9/4 7/17/4 3/10/4
f 7/12/5 8/19/5 4/3/5
f 1/14/6 4/20/6 8/15/6
